<svg xmlns="http://www.w3.org/2000/svg" width="190" height="108" viewBox="0 0 190 108"><rect width="100%" height="100%" fill="#DDDDDD"/><path fill="#999999" d="M45.635 60.99h3.38v2.41h-10.4v-2.41h3.81V50.04q0-.65.03-1.34l-2.7 2.26q-.23.18-.46.23-.23.04-.43 0-.2-.04-.36-.13-.15-.1-.23-.22l-1.01-1.39 5.73-4.87h2.64v16.41Zm9.29-10.75q0 1.58.81 2.4.82.83 2.31.83.78 0 1.39-.25.61-.25 1.03-.68.42-.42.63-1.01.22-.58.22-1.26 0-.77-.24-1.37-.23-.61-.66-1.02-.43-.42-1.02-.64-.59-.22-1.3-.22-.72 0-1.31.24-.58.24-1 .67-.42.43-.64 1.02-.22.59-.22 1.29Zm-1.57 13.16 5.84-7.29q.22-.28.41-.54.2-.26.38-.52-.65.42-1.43.63-.78.22-1.64.22-.97 0-1.91-.34t-1.66-1.02q-.73-.68-1.18-1.69-.45-1.01-.45-2.36 0-1.26.47-2.37.47-1.1 1.31-1.93.85-.83 2.03-1.32 1.18-.48 2.61-.48 1.45 0 2.6.46 1.15.45 1.96 1.27.81.82 1.25 1.97.43 1.14.43 2.5 0 .88-.15 1.66-.15.78-.42 1.5t-.66 1.41q-.39.69-.87 1.36l-4.31 6.14q-.22.31-.66.53-.44.21-1 .21h-2.95Zm26.79-9.4q0 2.46-.52 4.27-.53 1.81-1.46 3-.93 1.18-2.2 1.76-1.26.58-2.73.58t-2.73-.58q-1.25-.58-2.17-1.76-.93-1.19-1.45-3-.52-1.81-.52-4.27 0-2.47.52-4.28.52-1.8 1.45-2.99.92-1.18 2.17-1.76 1.26-.58 2.73-.58t2.73.58q1.27.58 2.2 1.76.93 1.19 1.46 2.99.52 1.81.52 4.28Zm-3.31 0q0-2.04-.3-3.38-.3-1.34-.8-2.13-.5-.79-1.15-1.11-.65-.32-1.35-.32-.69 0-1.34.32-.64.32-1.13 1.11-.5.79-.79 2.13-.29 1.34-.29 3.38t.29 3.38q.29 1.34.79 2.13.49.8 1.13 1.11.65.32 1.34.32.7 0 1.35-.32.65-.31 1.15-1.11.5-.79.8-2.13.3-1.34.3-3.38Zm23.96 5.1-1.71 1.67-4.4-4.4-4.45 4.43-1.7-1.68 4.44-4.46-4.23-4.23 1.69-1.69 4.23 4.23 4.22-4.21 1.71 1.69-4.22 4.23 4.42 4.42Zm17.79 1.89h3.38v2.41h-10.4v-2.41h3.81V50.04q0-.65.04-1.34l-2.7 2.26q-.24.18-.46.23-.23.04-.43 0-.2-.04-.36-.13-.16-.1-.23-.22l-1.02-1.39 5.73-4.87h2.64v16.41Zm19.44-6.99q0 2.46-.53 4.27-.52 1.81-1.45 3-.93 1.18-2.2 1.76-1.27.58-2.74.58-1.47 0-2.72-.58-1.26-.58-2.18-1.76-.92-1.19-1.44-3-.52-1.81-.52-4.27 0-2.47.52-4.28.52-1.8 1.44-2.99.92-1.18 2.18-1.76 1.25-.58 2.72-.58 1.47 0 2.74.58 1.27.58 2.2 1.76.93 1.19 1.45 2.99.53 1.81.53 4.28Zm-3.32 0q0-2.04-.3-3.38-.29-1.34-.8-2.13-.5-.79-1.15-1.11-.65-.32-1.35-.32-.69 0-1.33.32-.64.32-1.14 1.11-.49.79-.78 2.13-.3 1.34-.3 3.38t.3 3.38q.29 1.34.78 2.13.5.8 1.14 1.11.64.32 1.33.32.7 0 1.35-.32.65-.31 1.15-1.11.51-.79.8-2.13.3-1.34.3-3.38Zm11.51 7.1q.79 0 1.39-.23.6-.23 1.01-.63.41-.4.61-.96.21-.56.21-1.21 0-1.55-.86-2.34-.85-.79-2.36-.79-1.51 0-2.37.79-.86.79-.86 2.34 0 .65.21 1.21.21.56.62.96.41.4 1.01.63.6.23 1.39.23Zm0-14.29q-.72 0-1.24.22t-.86.59q-.35.37-.51.86-.16.48-.16 1.01 0 .56.14 1.09.13.52.46.93.32.41.86.66.53.24 1.31.24t1.31-.24q.53-.25.86-.66.32-.41.46-.93.14-.53.14-1.09 0-.53-.17-1.01-.17-.49-.51-.86-.34-.37-.86-.59-.52-.22-1.23-.22Zm3.17 6.79q1.72.56 2.54 1.71.81 1.15.81 2.81 0 1.25-.47 2.26-.47 1.02-1.33 1.73-.86.72-2.06 1.11-1.21.39-2.66.39-1.46 0-2.66-.39-1.2-.39-2.06-1.11-.86-.71-1.33-1.73-.48-1.01-.48-2.26 0-1.66.82-2.81.82-1.15 2.54-1.71-1.37-.57-2.05-1.63-.68-1.05-.68-2.53 0-1.07.43-1.99.44-.92 1.22-1.61.78-.68 1.86-1.06 1.09-.39 2.39-.39t2.38.39q1.09.38 1.87 1.06.78.69 1.21 1.61.44.92.44 1.99 0 1.48-.68 2.53-.68 1.06-2.05 1.63Z"/></svg>